<?xml version="1.0" encoding="utf-8"?>
<!-- Generator: Adobe Illustrator 16.2.1, SVG Export Plug-In . SVG Version: 6.00 Build 0)  -->
<!DOCTYPE svg PUBLIC "-//W3C//DTD SVG 1.1//EN" "http://www.w3.org/Graphics/SVG/1.1/DTD/svg11.dtd">
<svg version="1.1" id="Layer_1" xmlns="http://www.w3.org/2000/svg" xmlns:xlink="http://www.w3.org/1999/xlink" x="0px" y="0px"
	 width="323px" height="120px" viewBox="0 0 323 120" enable-background="new 0 0 323 120" xml:space="preserve">
<path fill="#FFCC7C" d="M135.5,13h161v6h-161V13z"/>
<path fill="#FFCC7C" d="M135.229,13L89.5,58.729L93.771,63L139.5,17.271L135.229,13z"/>
<path fill="#D79938" d="M153.413,58.17l45.417,45.418l-4.242,4.242L149.17,62.412L153.413,58.17z"/>
<g>
	<g>
		<rect x="1.5" y="58" fill="#FDB74B" width="295" height="6"/>
	</g>
</g>
<path fill="#D79938" d="M195.5,102h101v6h-101V102z"/>
<path fill="#D69E46" d="M308.5,47c7.732,0,14,6.268,14,14c0,7.732-6.268,14-14,14s-14-6.268-14-14C294.5,53.268,300.768,47,308.5,47
	z"/>
<path fill="#D69E46" d="M308.5,91c7.732,0,14,6.268,14,14s-6.268,14-14,14s-14-6.268-14-14S300.768,91,308.5,91z"/>
<path fill="#D69E46" d="M308.5,2c7.732,0,14,6.268,14,14s-6.268,14-14,14s-14-6.268-14-14S300.768,2,308.5,2z"/>
</svg>
