<?xml version="1.0" encoding="utf-8"?>
<!-- Generator: Adobe Illustrator 17.0.0, SVG Export Plug-In . SVG Version: 6.00 Build 0)  -->
<!DOCTYPE svg PUBLIC "-//W3C//DTD SVG 1.1//EN" "http://www.w3.org/Graphics/SVG/1.1/DTD/svg11.dtd">
<svg version="1.1" id="Layer_1" xmlns="http://www.w3.org/2000/svg" xmlns:xlink="http://www.w3.org/1999/xlink" x="0px" y="0px"
	 width="158.279px" height="55.72px" viewBox="6.765 6.656 158.279 55.72" enable-background="new 6.765 6.656 158.279 55.72"
	 xml:space="preserve">
<path fill="#09A3DD" d="M16.202,62.003c-6.643,0-9.437-4.657-9.437-9.251V17.799h8.072v34.458c0,1.923,0.807,2.916,2.856,2.916
	h3.104v6.831h-4.595V62.003z"/>
<path fill="#09A3DD" d="M42.312,48.344h-6.393c-2.918,0-4.534,1.367-4.534,3.663c0,2.236,1.49,3.726,4.657,3.726
	c2.235,0,3.663-0.186,5.09-1.553c0.87-0.807,1.18-2.109,1.18-4.096V48.344z M42.499,62.003v-2.794
	c-2.173,2.173-4.222,3.104-7.947,3.104c-3.663,0-6.333-0.931-8.257-2.857c-1.739-1.8-2.67-4.407-2.67-7.264
	c0-5.153,3.539-9.373,11.05-9.373h7.637v-1.614c0-3.539-1.739-5.092-6.022-5.092c-3.105,0-4.532,0.746-6.208,2.669l-5.154-5.027
	c3.167-3.476,6.27-4.47,11.673-4.47c9.064,0,13.782,3.848,13.782,11.424v21.294H42.499z"/>
<path fill="#09A3DD" d="M100.448,48.344h-6.394c-2.918,0-4.533,1.367-4.533,3.663c0,2.236,1.49,3.726,4.657,3.726
	c2.236,0,3.663-0.186,5.09-1.553c0.87-0.807,1.18-2.109,1.18-4.096C100.448,50.084,100.448,48.344,100.448,48.344z M100.634,62.003
	v-2.794c-2.173,2.173-4.22,3.104-7.946,3.104c-3.663,0-6.334-0.931-8.258-2.857c-1.738-1.8-2.669-4.407-2.669-7.264
	c0-5.153,3.539-9.373,11.05-9.373h7.637v-1.614c0-3.539-1.74-5.092-6.022-5.092c-3.105,0-4.532,0.746-6.208,2.669l-5.154-5.027
	c3.167-3.476,6.27-4.47,11.672-4.47c9.065,0,13.784,3.848,13.784,11.424v21.294H100.634z"/>
<path fill="#09A3DD" d="M125.836,62.376c-6.457,0-14.464-3.477-14.464-16.577s8.007-16.514,14.464-16.514
	c4.471,0,7.822,1.364,10.677,4.344l-5.46,5.463c-1.679-1.799-3.107-2.543-5.217-2.543c-1.923,0-3.416,0.683-4.593,2.11
	c-1.243,1.553-1.803,3.723-1.803,7.14c0,3.414,0.56,5.65,1.803,7.2c1.177,1.43,2.67,2.114,4.593,2.114
	c2.11,0,3.538-0.747,5.217-2.548l5.46,5.401C133.658,60.947,130.307,62.376,125.836,62.376"/>
<path fill="#09A3DD" d="M156.974,48.344h-6.397c-2.917,0-4.529,1.367-4.529,3.663c0,2.236,1.486,3.726,4.653,3.726
	c2.236,0,3.665-0.186,5.093-1.553c0.867-0.807,1.181-2.109,1.181-4.096L156.974,48.344L156.974,48.344z M157.159,62.003v-2.794
	c-2.173,2.173-4.223,3.104-7.946,3.104c-3.666,0-6.334-0.931-8.26-2.857c-1.737-1.8-2.668-4.407-2.668-7.264
	c0-5.153,3.538-9.373,11.051-9.373h7.638v-1.614c0-3.539-1.741-5.092-6.024-5.092c-3.103,0-4.53,0.746-6.209,2.669l-5.154-5.027
	c3.168-3.476,6.273-4.47,11.674-4.47c9.066,0,13.783,3.848,13.783,11.424v21.294H157.159z"/>
<polygon fill="#09A3DD" points="69.266,62.003 62.934,62.003 51.014,29.657 59.52,29.657 66.101,49.648 72.62,29.657 81.125,29.657 
	"/>
<path fill="#FCB848" d="M92.64,12.989c0,3.229-0.806,5.465-2.296,6.953c-1.8,1.8-4.097,2.607-6.891,2.607h-9.002
	c-1.738,0-2.981,0.312-3.724,1.059c-0.683,0.681-1.18,1.737-1.18,3.227v2.854h-7.204v-2.854c0-1.49-0.496-2.546-1.18-3.227
	c-0.743-0.747-1.986-1.059-3.723-1.059h-9.003c-2.794,0-5.091-0.807-6.891-2.607c-1.49-1.488-2.296-3.724-2.296-6.953V6.656h7.263
	v3.292c0,1.861,0.187,2.854,0.87,3.54c0.744,0.68,1.861,0.993,3.973,0.993h8.38c4.47,0,5.588,2.668,6.21,4.281
	c0.62-1.613,1.738-4.281,6.208-4.281h8.38c2.112,0,3.229-0.313,3.973-0.993c0.684-0.686,0.87-1.679,0.87-3.54V6.656h7.263
	C92.64,6.656,92.64,12.989,92.64,12.989z"/>
</svg>
